<svg width="8" height="8" viewBox="0 0 8 8" fill="none" xmlns="http://www.w3.org/2000/svg">
<path fill-rule="evenodd" clip-rule="evenodd" d="M5.88997 0.700001L3.99997 2.59L2.10997 0.700001C1.71997 0.310001 1.08997 0.310001 0.699971 0.700001C0.309971 1.09 0.309971 1.72 0.699971 2.11L2.58997 4L0.699971 5.89C0.309971 6.28 0.309971 6.91 0.699971 7.3C1.08997 7.69 1.71997 7.69 2.10997 7.3L3.99997 5.41L5.88997 7.3C6.27997 7.69 6.90997 7.69 7.29997 7.3C7.68997 6.91 7.68997 6.28 7.29997 5.89L5.40997 4L7.29997 2.11C7.68997 1.72 7.68997 1.09 7.29997 0.700001C6.90997 0.320001 6.26997 0.320001 5.88997 0.700001Z" fill="#15A758"/>
</svg>
